<?xml version="1.0" encoding="UTF-8" standalone="no"?>
<!DOCTYPE svg PUBLIC "-//W3C//DTD SVG 1.1//EN"
 "http://www.w3.org/Graphics/SVG/1.1/DTD/svg11.dtd">
<!-- Generated by graphviz version 2.40.1 (20161225.0304)
 -->
<!-- Title: controllers_diagram Pages: 1 -->
<svg width="424pt" height="274pt"
 viewBox="0.00 0.00 424.38 274.00" xmlns="http://www.w3.org/2000/svg" xmlns:xlink="http://www.w3.org/1999/xlink">
<g id="graph0" class="graph" transform="scale(1 1) rotate(0) translate(4 270)">
<title>controllers_diagram</title>
<polygon fill="transparent" stroke="transparent" points="-4,4 -4,-270 420.3755,-270 420.3755,4 -4,4"/>
<!-- _diagram_info -->
<g id="node1" class="node">
<title>_diagram_info</title>
<text text-anchor="start" x="217" y="-77.6" font-family="Times,serif" font-size="13.00" fill="#000000">Controllers diagram</text>
<text text-anchor="start" x="217" y="-64.6" font-family="Times,serif" font-size="13.00" fill="#000000">Date: Sep 08 2017 &#45; 15:24</text>
<text text-anchor="start" x="217" y="-51.6" font-family="Times,serif" font-size="13.00" fill="#000000">Migration version: 20170904173854</text>
<text text-anchor="start" x="217" y="-38.6" font-family="Times,serif" font-size="13.00" fill="#000000">Generated by RailRoady 1.5.3</text>
<text text-anchor="start" x="217" y="-25.6" font-family="Times,serif" font-size="13.00" fill="#000000">http://railroady.prestonlee.com</text>
</g>
<!-- ApplicationController -->
<g id="node2" class="node">
<title>ApplicationController</title>
<path fill="none" stroke="#000000" d="M221,-133.5C221,-133.5 336.6416,-133.5 336.6416,-133.5 342.6416,-133.5 348.6416,-139.5 348.6416,-145.5 348.6416,-145.5 348.6416,-253.5 348.6416,-253.5 348.6416,-259.5 342.6416,-265.5 336.6416,-265.5 336.6416,-265.5 221,-265.5 221,-265.5 215,-265.5 209,-259.5 209,-253.5 209,-253.5 209,-145.5 209,-145.5 209,-139.5 215,-133.5 221,-133.5"/>
<text text-anchor="middle" x="278.8208" y="-250.3" font-family="Times,serif" font-size="14.00" fill="#000000">ApplicationController</text>
<polyline fill="none" stroke="#000000" points="209,-243.5 348.6416,-243.5 "/>
<text text-anchor="start" x="217" y="-228.3" font-family="Times,serif" font-size="14.00" fill="#000000">get_wechat_sns</text>
<text text-anchor="start" x="217" y="-214.3" font-family="Times,serif" font-size="14.00" fill="#000000">invoke_wx_auth</text>
<polyline fill="none" stroke="#000000" points="209,-207.5 348.6416,-207.5 "/>
<polyline fill="none" stroke="#000000" points="209,-183.5 348.6416,-183.5 "/>
<text text-anchor="start" x="217" y="-168.3" font-family="Times,serif" font-size="14.00" fill="#000000">_layout</text>
<text text-anchor="start" x="217" y="-154.3" font-family="Times,serif" font-size="14.00" fill="#000000">oauth</text>
<text text-anchor="start" x="217" y="-140.3" font-family="Times,serif" font-size="14.00" fill="#000000">state</text>
</g>
<!-- ResultsController -->
<g id="node3" class="node">
<title>ResultsController</title>
<path fill="none" stroke="#000000" d="M12,-.5C12,-.5 156.3662,-.5 156.3662,-.5 162.3662,-.5 168.3662,-6.5 168.3662,-12.5 168.3662,-12.5 168.3662,-232.5 168.3662,-232.5 168.3662,-238.5 162.3662,-244.5 156.3662,-244.5 156.3662,-244.5 12,-244.5 12,-244.5 6,-244.5 0,-238.5 0,-232.5 0,-232.5 0,-12.5 0,-12.5 0,-6.5 6,-.5 12,-.5"/>
<text text-anchor="middle" x="84.1831" y="-229.3" font-family="Times,serif" font-size="14.00" fill="#000000">ResultsController</text>
<polyline fill="none" stroke="#000000" points="0,-222.5 168.3662,-222.5 "/>
<text text-anchor="start" x="8" y="-207.3" font-family="Times,serif" font-size="14.00" fill="#000000">index</text>
<text text-anchor="start" x="8" y="-193.3" font-family="Times,serif" font-size="14.00" fill="#000000">destroy</text>
<text text-anchor="start" x="8" y="-179.3" font-family="Times,serif" font-size="14.00" fill="#000000">edit</text>
<text text-anchor="start" x="8" y="-165.3" font-family="Times,serif" font-size="14.00" fill="#000000">create</text>
<text text-anchor="start" x="8" y="-151.3" font-family="Times,serif" font-size="14.00" fill="#000000">new</text>
<text text-anchor="start" x="8" y="-137.3" font-family="Times,serif" font-size="14.00" fill="#000000">show</text>
<text text-anchor="start" x="8" y="-123.3" font-family="Times,serif" font-size="14.00" fill="#000000">update</text>
<polyline fill="none" stroke="#000000" points="0,-116.5 168.3662,-116.5 "/>
<polyline fill="none" stroke="#000000" points="0,-92.5 168.3662,-92.5 "/>
<text text-anchor="start" x="8" y="-77.3" font-family="Times,serif" font-size="14.00" fill="#000000">_layout</text>
<text text-anchor="start" x="8" y="-63.3" font-family="Times,serif" font-size="14.00" fill="#000000">authenticate</text>
<text text-anchor="start" x="8" y="-49.3" font-family="Times,serif" font-size="14.00" fill="#000000">json_create_restirct_access</text>
<text text-anchor="start" x="8" y="-35.3" font-family="Times,serif" font-size="14.00" fill="#000000">result_params</text>
<text text-anchor="start" x="8" y="-21.3" font-family="Times,serif" font-size="14.00" fill="#000000">set_result</text>
<text text-anchor="start" x="8" y="-7.3" font-family="Times,serif" font-size="14.00" fill="#000000">subject_class</text>
</g>
</g>
</svg>
