<?xml version="1.0" encoding="UTF-8" standalone="no"?>
<!DOCTYPE svg PUBLIC "-//W3C//DTD SVG 1.1//EN"
 "http://www.w3.org/Graphics/SVG/1.1/DTD/svg11.dtd">
<!-- Generated by graphviz version 2.40.1 (20161225.0304)
 -->
<!-- Title: models_diagram Pages: 1 -->
<svg width="612pt" height="153pt"
 viewBox="0.00 0.00 611.55 153.00" xmlns="http://www.w3.org/2000/svg" xmlns:xlink="http://www.w3.org/1999/xlink">
<g id="graph0" class="graph" transform="scale(1 1) rotate(0) translate(4 149)">
<title>models_diagram</title>
<polygon fill="transparent" stroke="transparent" points="-4,4 -4,-149 607.5534,-149 607.5534,4 -4,4"/>
<!-- _diagram_info -->
<g id="node1" class="node">
<title>_diagram_info</title>
<text text-anchor="start" x="8" y="-130.6" font-family="Times,serif" font-size="13.00" fill="#000000">Models diagram</text>
<text text-anchor="start" x="8" y="-117.6" font-family="Times,serif" font-size="13.00" fill="#000000">Date: Sep 08 2017 &#45; 15:24</text>
<text text-anchor="start" x="8" y="-104.6" font-family="Times,serif" font-size="13.00" fill="#000000">Migration version: 20170904173854</text>
<text text-anchor="start" x="8" y="-91.6" font-family="Times,serif" font-size="13.00" fill="#000000">Generated by RailRoady 1.5.3</text>
<text text-anchor="start" x="8" y="-78.6" font-family="Times,serif" font-size="13.00" fill="#000000">http://railroady.prestonlee.com</text>
</g>
<!-- ApplicationRecord -->
<g id="node2" class="node">
<title>ApplicationRecord</title>
<ellipse fill="none" stroke="#000000" cx="302.6877" cy="-108.5" rx="77.2916" ry="18"/>
<text text-anchor="middle" x="302.6877" y="-104.3" font-family="Times,serif" font-size="14.00" fill="#000000">ApplicationRecord</text>
</g>
<!-- PrimaryEnglishResult -->
<g id="node3" class="node">
<title>PrimaryEnglishResult</title>
<ellipse fill="none" stroke="#000000" cx="337.6877" cy="-18" rx="88.443" ry="18"/>
<text text-anchor="middle" x="337.6877" y="-13.8" font-family="Times,serif" font-size="14.00" fill="#000000">PrimaryEnglishResult</text>
</g>
<!-- PrimaryMathResult -->
<g id="node4" class="node">
<title>PrimaryMathResult</title>
<ellipse fill="none" stroke="#000000" cx="523.6877" cy="-18" rx="79.7316" ry="18"/>
<text text-anchor="middle" x="523.6877" y="-13.8" font-family="Times,serif" font-size="14.00" fill="#000000">PrimaryMathResult</text>
</g>
<!-- Result -->
<g id="node5" class="node">
<title>Result</title>
<ellipse fill="none" stroke="#000000" cx="430.6877" cy="-108.5" rx="32.9168" ry="18"/>
<text text-anchor="middle" x="430.6877" y="-104.3" font-family="Times,serif" font-size="14.00" fill="#000000">Result</text>
</g>
<!-- Result&#45;&gt;PrimaryEnglishResult -->
<g id="edge1" class="edge">
<title>Result&#45;&gt;PrimaryEnglishResult</title>
<path fill="none" stroke="#56c341" d="M408.4066,-86.8178C394.8647,-73.6399 377.5215,-56.7629 363.3994,-43.0205"/>
<ellipse fill="none" stroke="#56c341" cx="411.6217" cy="-89.9465" rx="4" ry="4"/>
<polygon fill="#56c341" stroke="#56c341" points="363.0966,-42.7258 359.0682,-32.5266 359.5132,-39.2387 355.9298,-35.7517 355.9298,-35.7517 355.9298,-35.7517 359.5132,-39.2387 352.7915,-38.9767 363.0966,-42.7258 363.0966,-42.7258"/>
</g>
<!-- Result&#45;&gt;PrimaryMathResult -->
<g id="edge2" class="edge">
<title>Result&#45;&gt;PrimaryMathResult</title>
<path fill="none" stroke="#ac5a3c" d="M452.9689,-86.8178C466.5108,-73.6399 483.854,-56.7629 497.9761,-43.0205"/>
<ellipse fill="none" stroke="#ac5a3c" cx="449.7538" cy="-89.9465" rx="4" ry="4"/>
<polygon fill="#ac5a3c" stroke="#ac5a3c" points="498.2789,-42.7258 508.584,-38.9767 501.8623,-39.2387 505.4457,-35.7517 505.4457,-35.7517 505.4457,-35.7517 501.8623,-39.2387 502.3073,-32.5266 498.2789,-42.7258 498.2789,-42.7258"/>
</g>
<!-- User -->
<g id="node6" class="node">
<title>User</title>
<ellipse fill="none" stroke="#000000" cx="508.6877" cy="-108.5" rx="27" ry="18"/>
<text text-anchor="middle" x="508.6877" y="-104.3" font-family="Times,serif" font-size="14.00" fill="#000000">User</text>
</g>
</g>
</svg>
