<?xml version="1.0" encoding="UTF-8" standalone="no"?>
<!DOCTYPE svg PUBLIC "-//W3C//DTD SVG 1.1//EN"
 "http://www.w3.org/Graphics/SVG/1.1/DTD/svg11.dtd">
<!-- Generated by graphviz version 2.40.1 (20161225.0304)
 -->
<!-- Title: models_diagram Pages: 1 -->
<svg width="796pt" height="414pt"
 viewBox="0.00 0.00 795.97 414.00" xmlns="http://www.w3.org/2000/svg" xmlns:xlink="http://www.w3.org/1999/xlink">
<g id="graph0" class="graph" transform="scale(1 1) rotate(0) translate(4 410)">
<title>models_diagram</title>
<polygon fill="transparent" stroke="transparent" points="-4,4 -4,-410 791.9656,-410 791.9656,4 -4,4"/>
<!-- _diagram_info -->
<g id="node1" class="node">
<title>_diagram_info</title>
<text text-anchor="start" x="8" y="-335.6" font-family="Times,serif" font-size="13.00" fill="#000000">Models diagram</text>
<text text-anchor="start" x="8" y="-322.6" font-family="Times,serif" font-size="13.00" fill="#000000">Date: Sep 08 2017 &#45; 15:24</text>
<text text-anchor="start" x="8" y="-309.6" font-family="Times,serif" font-size="13.00" fill="#000000">Migration version: 20170904173854</text>
<text text-anchor="start" x="8" y="-296.6" font-family="Times,serif" font-size="13.00" fill="#000000">Generated by RailRoady 1.5.3</text>
<text text-anchor="start" x="8" y="-283.6" font-family="Times,serif" font-size="13.00" fill="#000000">http://railroady.prestonlee.com</text>
</g>
<!-- ApplicationRecord -->
<g id="node2" class="node">
<title>ApplicationRecord</title>
<ellipse fill="none" stroke="#000000" cx="302.6877" cy="-313.5" rx="77.2916" ry="18"/>
<text text-anchor="middle" x="302.6877" y="-309.3" font-family="Times,serif" font-size="14.00" fill="#000000">ApplicationRecord</text>
</g>
<!-- PrimaryEnglishResult -->
<g id="node3" class="node">
<title>PrimaryEnglishResult</title>
<path fill="none" stroke="#000000" d="M317.0754,-.5C317.0754,-.5 460.3,-.5 460.3,-.5 466.3,-.5 472.3,-6.5 472.3,-12.5 472.3,-12.5 472.3,-172.5 472.3,-172.5 472.3,-178.5 466.3,-184.5 460.3,-184.5 460.3,-184.5 317.0754,-184.5 317.0754,-184.5 311.0754,-184.5 305.0754,-178.5 305.0754,-172.5 305.0754,-172.5 305.0754,-12.5 305.0754,-12.5 305.0754,-6.5 311.0754,-.5 317.0754,-.5"/>
<text text-anchor="middle" x="388.6877" y="-169.3" font-family="Times,serif" font-size="14.00" fill="#000000">PrimaryEnglishResult</text>
<polyline fill="none" stroke="#000000" points="305.0754,-162.5 472.3,-162.5 "/>
<text text-anchor="start" x="313.0754" y="-147.3" font-family="Times,serif" font-size="14.00" fill="#000000">updated_at :datetime</text>
<text text-anchor="start" x="313.0754" y="-133.3" font-family="Times,serif" font-size="14.00" fill="#000000">result_id :integer</text>
<text text-anchor="start" x="313.0754" y="-119.3" font-family="Times,serif" font-size="14.00" fill="#000000">openid :varchar</text>
<text text-anchor="start" x="313.0754" y="-105.3" font-family="Times,serif" font-size="14.00" fill="#000000">form :varchar</text>
<text text-anchor="start" x="313.0754" y="-91.3" font-family="Times,serif" font-size="14.00" fill="#000000">form_name :varchar</text>
<text text-anchor="start" x="313.0754" y="-77.3" font-family="Times,serif" font-size="14.00" fill="#000000">entry :text</text>
<text text-anchor="start" x="313.0754" y="-63.3" font-family="Times,serif" font-size="14.00" fill="#000000">gen_code :varchar</text>
<text text-anchor="start" x="313.0754" y="-49.3" font-family="Times,serif" font-size="14.00" fill="#000000">form_created_at :datetime</text>
<text text-anchor="start" x="313.0754" y="-35.3" font-family="Times,serif" font-size="14.00" fill="#000000">form_updated_at :datetime</text>
<text text-anchor="start" x="313.0754" y="-21.3" font-family="Times,serif" font-size="14.00" fill="#000000">created_at :datetime</text>
<text text-anchor="start" x="313.0754" y="-7.3" font-family="Times,serif" font-size="14.00" fill="#000000">id :INTEGER</text>
</g>
<!-- PrimaryMathResult -->
<g id="node4" class="node">
<title>PrimaryMathResult</title>
<path fill="none" stroke="#000000" d="M502.0754,-.5C502.0754,-.5 645.3,-.5 645.3,-.5 651.3,-.5 657.3,-6.5 657.3,-12.5 657.3,-12.5 657.3,-172.5 657.3,-172.5 657.3,-178.5 651.3,-184.5 645.3,-184.5 645.3,-184.5 502.0754,-184.5 502.0754,-184.5 496.0754,-184.5 490.0754,-178.5 490.0754,-172.5 490.0754,-172.5 490.0754,-12.5 490.0754,-12.5 490.0754,-6.5 496.0754,-.5 502.0754,-.5"/>
<text text-anchor="middle" x="573.6877" y="-169.3" font-family="Times,serif" font-size="14.00" fill="#000000">PrimaryMathResult</text>
<polyline fill="none" stroke="#000000" points="490.0754,-162.5 657.3,-162.5 "/>
<text text-anchor="start" x="498.0754" y="-147.3" font-family="Times,serif" font-size="14.00" fill="#000000">updated_at :datetime</text>
<text text-anchor="start" x="498.0754" y="-133.3" font-family="Times,serif" font-size="14.00" fill="#000000">result_id :integer</text>
<text text-anchor="start" x="498.0754" y="-119.3" font-family="Times,serif" font-size="14.00" fill="#000000">openid :varchar</text>
<text text-anchor="start" x="498.0754" y="-105.3" font-family="Times,serif" font-size="14.00" fill="#000000">form :varchar</text>
<text text-anchor="start" x="498.0754" y="-91.3" font-family="Times,serif" font-size="14.00" fill="#000000">form_name :varchar</text>
<text text-anchor="start" x="498.0754" y="-77.3" font-family="Times,serif" font-size="14.00" fill="#000000">entry :text</text>
<text text-anchor="start" x="498.0754" y="-63.3" font-family="Times,serif" font-size="14.00" fill="#000000">gen_code :varchar</text>
<text text-anchor="start" x="498.0754" y="-49.3" font-family="Times,serif" font-size="14.00" fill="#000000">form_created_at :datetime</text>
<text text-anchor="start" x="498.0754" y="-35.3" font-family="Times,serif" font-size="14.00" fill="#000000">form_updated_at :datetime</text>
<text text-anchor="start" x="498.0754" y="-21.3" font-family="Times,serif" font-size="14.00" fill="#000000">created_at :datetime</text>
<text text-anchor="start" x="498.0754" y="-7.3" font-family="Times,serif" font-size="14.00" fill="#000000">id :INTEGER</text>
</g>
<!-- Result -->
<g id="node5" class="node">
<title>Result</title>
<path fill="none" stroke="#000000" d="M410.0754,-256.5C410.0754,-256.5 553.3,-256.5 553.3,-256.5 559.3,-256.5 565.3,-262.5 565.3,-268.5 565.3,-268.5 565.3,-358.5 565.3,-358.5 565.3,-364.5 559.3,-370.5 553.3,-370.5 553.3,-370.5 410.0754,-370.5 410.0754,-370.5 404.0754,-370.5 398.0754,-364.5 398.0754,-358.5 398.0754,-358.5 398.0754,-268.5 398.0754,-268.5 398.0754,-262.5 404.0754,-256.5 410.0754,-256.5"/>
<text text-anchor="middle" x="481.6877" y="-355.3" font-family="Times,serif" font-size="14.00" fill="#000000">Result</text>
<polyline fill="none" stroke="#000000" points="398.0754,-348.5 565.3,-348.5 "/>
<text text-anchor="start" x="406.0754" y="-333.3" font-family="Times,serif" font-size="14.00" fill="#000000">id :INTEGER</text>
<text text-anchor="start" x="406.0754" y="-319.3" font-family="Times,serif" font-size="14.00" fill="#000000">subject :varchar</text>
<text text-anchor="start" x="406.0754" y="-305.3" font-family="Times,serif" font-size="14.00" fill="#000000">form_created_at :datetime</text>
<text text-anchor="start" x="406.0754" y="-291.3" font-family="Times,serif" font-size="14.00" fill="#000000">form_updated_at :datetime</text>
<text text-anchor="start" x="406.0754" y="-277.3" font-family="Times,serif" font-size="14.00" fill="#000000">created_at :datetime</text>
<text text-anchor="start" x="406.0754" y="-263.3" font-family="Times,serif" font-size="14.00" fill="#000000">updated_at :datetime</text>
</g>
<!-- Result&#45;&gt;PrimaryEnglishResult -->
<g id="edge1" class="edge">
<title>Result&#45;&gt;PrimaryEnglishResult</title>
<path fill="none" stroke="#44a9e6" d="M454.433,-248.7334C447.207,-231.5619 439.2281,-212.6013 431.3938,-193.9843"/>
<ellipse fill="none" stroke="#44a9e6" cx="456.0655" cy="-252.6127" rx="4" ry="4"/>
<polygon fill="#44a9e6" stroke="#44a9e6" points="431.3185,-193.8052 431.5874,-182.8426 429.3791,-189.1966 427.4397,-184.588 427.4397,-184.588 427.4397,-184.588 429.3791,-189.1966 423.292,-186.3334 431.3185,-193.8052 431.3185,-193.8052"/>
</g>
<!-- Result&#45;&gt;PrimaryMathResult -->
<g id="edge2" class="edge">
<title>Result&#45;&gt;PrimaryMathResult</title>
<path fill="none" stroke="#bb8fe6" d="M508.6494,-248.7334C515.7977,-231.5619 523.6908,-212.6013 531.4409,-193.9843"/>
<ellipse fill="none" stroke="#bb8fe6" cx="507.037" cy="-252.6068" rx="4" ry="4"/>
<polygon fill="#bb8fe6" stroke="#bb8fe6" points="531.5092,-193.82 539.5069,-186.3175 533.4308,-189.204 535.3525,-184.588 535.3525,-184.588 535.3525,-184.588 533.4308,-189.204 531.1981,-182.8585 531.5092,-193.82 531.5092,-193.82"/>
</g>
<!-- User -->
<g id="node6" class="node">
<title>User</title>
<path fill="none" stroke="#000000" d="M595.4099,-221.5C595.4099,-221.5 775.9656,-221.5 775.9656,-221.5 781.9656,-221.5 787.9656,-227.5 787.9656,-233.5 787.9656,-233.5 787.9656,-393.5 787.9656,-393.5 787.9656,-399.5 781.9656,-405.5 775.9656,-405.5 775.9656,-405.5 595.4099,-405.5 595.4099,-405.5 589.4099,-405.5 583.4099,-399.5 583.4099,-393.5 583.4099,-393.5 583.4099,-233.5 583.4099,-233.5 583.4099,-227.5 589.4099,-221.5 595.4099,-221.5"/>
<text text-anchor="middle" x="685.6877" y="-390.3" font-family="Times,serif" font-size="14.00" fill="#000000">User</text>
<polyline fill="none" stroke="#000000" points="583.4099,-383.5 787.9656,-383.5 "/>
<text text-anchor="start" x="591.4099" y="-368.3" font-family="Times,serif" font-size="14.00" fill="#000000">last_sign_in_ip :varchar</text>
<text text-anchor="start" x="591.4099" y="-354.3" font-family="Times,serif" font-size="14.00" fill="#000000">email :varchar</text>
<text text-anchor="start" x="591.4099" y="-340.3" font-family="Times,serif" font-size="14.00" fill="#000000">encrypted_password :varchar</text>
<text text-anchor="start" x="591.4099" y="-326.3" font-family="Times,serif" font-size="14.00" fill="#000000">reset_password_token :varchar</text>
<text text-anchor="start" x="591.4099" y="-312.3" font-family="Times,serif" font-size="14.00" fill="#000000">reset_password_sent_at :datetime</text>
<text text-anchor="start" x="591.4099" y="-298.3" font-family="Times,serif" font-size="14.00" fill="#000000">remember_created_at :datetime</text>
<text text-anchor="start" x="591.4099" y="-284.3" font-family="Times,serif" font-size="14.00" fill="#000000">sign_in_count :integer</text>
<text text-anchor="start" x="591.4099" y="-270.3" font-family="Times,serif" font-size="14.00" fill="#000000">current_sign_in_at :datetime</text>
<text text-anchor="start" x="591.4099" y="-256.3" font-family="Times,serif" font-size="14.00" fill="#000000">last_sign_in_at :datetime</text>
<text text-anchor="start" x="591.4099" y="-242.3" font-family="Times,serif" font-size="14.00" fill="#000000">current_sign_in_ip :varchar</text>
<text text-anchor="start" x="591.4099" y="-228.3" font-family="Times,serif" font-size="14.00" fill="#000000">id :INTEGER</text>
</g>
</g>
</svg>
